<?xml version="1.0" encoding="UTF-8"?>
<!DOCTYPE svg PUBLIC "-//W3C//DTD SVG 1.0//EN" "http://www.w3.org/TR/2001/REC-SVG-20010904/DTD/svg10.dtd">
<!-- Creator: CorelDRAW X7 -->
<svg xmlns="http://www.w3.org/2000/svg" xml:space="preserve" width="161.013mm" height="74.0833mm" version="1.0" style="shape-rendering:geometricPrecision; text-rendering:geometricPrecision; image-rendering:optimizeQuality; fill-rule:evenodd; clip-rule:evenodd"
viewBox="0 0 8341 3838"
 xmlns:xlink="http://www.w3.org/1999/xlink">
 <defs>
  <style type="text/css">
   <![CDATA[
    .fil17 {fill:#1D2087}
    .fil15 {fill:#F8C300}
    .fil16 {fill:#FCCF00}
    .fil18 {fill:white}
    .fil13 {fill:#00105C;fill-rule:nonzero}
    .fil22 {fill:#001065;fill-rule:nonzero}
    .fil20 {fill:#001945;fill-rule:nonzero}
    .fil19 {fill:#006386;fill-rule:nonzero}
    .fil10 {fill:#0094C8;fill-rule:nonzero}
    .fil3 {fill:#09186C;fill-rule:nonzero}
    .fil1 {fill:#09186D;fill-rule:nonzero}
    .fil14 {fill:#0A1C34;fill-rule:nonzero}
    .fil6 {fill:#0F0F3F;fill-rule:nonzero}
    .fil5 {fill:#151544;fill-rule:nonzero}
    .fil12 {fill:#463C0D;fill-rule:nonzero}
    .fil4 {fill:#6C8AFF;fill-rule:nonzero}
    .fil8 {fill:#A07348;fill-rule:nonzero}
    .fil24 {fill:#C3CCE1;fill-rule:nonzero}
    .fil21 {fill:#D4E8FF;fill-rule:nonzero}
    .fil25 {fill:#D6D6D6;fill-rule:nonzero}
    .fil23 {fill:#DDE8FF;fill-rule:nonzero}
    .fil9 {fill:#E6A66A;fill-rule:nonzero}
    .fil27 {fill:#EDEDED;fill-rule:nonzero}
    .fil26 {fill:#FBAB00;fill-rule:nonzero}
    .fil28 {fill:#FCCF00;fill-rule:nonzero}
    .fil7 {fill:#FFC57F;fill-rule:nonzero}
    .fil11 {fill:#FFEE16;fill-rule:nonzero}
    .fil0 {fill:white;fill-rule:nonzero}
    .fil2 {fill:url(#id3)}
   ]]>
  </style>
   <clipPath id="id0">
    <path d="M1199 2032l31 49 11 2 202 -73 3 -4 0 -8 -37 -34 -210 68z"/>
   </clipPath>
   <clipPath id="id1">
    <path d="M1873 1969l-2 8 3 4 173 127 11 1 44 -38 -184 -125 -45 23z"/>
   </clipPath>
   <clipPath id="id2" style="clip-rule:nonzero">
    <rect x="1304" y="2158" width="197.043" height="86.42"/>
   </clipPath>
  <linearGradient id="id3" gradientUnits="userSpaceOnUse" x1="1476.4" y1="2382.33" x2="1881.01" y2="1295.77">
   <stop offset="0" style="stop-opacity:1; stop-color:#09186C"/>
   <stop offset="1" style="stop-opacity:1; stop-color:#2E3191"/>
  </linearGradient>
 </defs>
 <g id="Layer_x0020_1">
  <metadata id="CorelCorpID_0Corel-Layer"/>
  <path class="fil0" d="M1562 3338l6675 0c57,0 104,-47 104,-105l0 -2889c0,-58 -47,-105 -104,-105l-6675 0c-58,0 -105,47 -105,105l0 2889c0,58 47,105 105,105z"/>
  <path class="fil1" d="M5556 3012l2152 0c127,0 230,-103 230,-230l0 -455c0,-127 -103,-231 -230,-231l-2152 0c-127,0 -230,104 -230,231l0 455c0,127 103,230 230,230z"/>
  <path class="fil0" d="M5755 2523l102 117 -45 0 -91 -107 0 107 -38 0 0 -231 38 0 0 105 91 -105 45 0 -102 114zm125 -116c0,-6 2,-11 6,-15 5,-5 10,-7 18,-7 7,0 13,2 17,7 4,4 7,9 7,15 0,7 -3,12 -7,16 -4,4 -10,6 -17,6 -8,0 -13,-2 -18,-6 -4,-4 -6,-9 -6,-16zm42 53l0 180 -37 0 0 -180 37 0zm82 35c7,-12 15,-21 27,-28 11,-7 24,-10 39,-10l0 40 -11 0c-17,0 -30,4 -40,12 -10,8 -15,21 -15,39l0 92 -37 0 0 -180 37 0 0 35zm88 -88c0,-6 3,-11 7,-15 4,-5 10,-7 17,-7 7,0 13,2 18,7 4,4 6,9 6,15 0,7 -2,12 -6,16 -5,4 -11,6 -18,6 -7,0 -13,-2 -17,-6 -4,-4 -7,-9 -7,-16zm43 53l0 180 -37 0 0 -180 37 0zm270 -3c21,0 39,6 51,20 13,13 19,33 19,58l0 105 -37 0 0 -101c0,-16 -4,-28 -12,-37 -7,-8 -18,-13 -32,-13 -15,0 -26,5 -35,14 -8,9 -13,23 -13,41l0 96 -37 0 0 -101c0,-16 -4,-28 -12,-37 -8,-8 -18,-13 -32,-13 -15,0 -26,5 -35,14 -8,9 -13,23 -13,41l0 96 -37 0 0 -180 37 0 0 37c5,-13 12,-23 23,-30 11,-7 23,-10 38,-10 15,0 28,3 39,11 11,7 19,18 24,32 5,-14 13,-24 25,-32 11,-8 25,-11 39,-11zm294 0c15,0 29,4 42,11 12,8 21,18 28,32 7,14 11,31 11,49 0,19 -4,36 -11,50 -7,14 -16,24 -28,32 -13,7 -27,11 -42,11 -17,0 -31,-4 -42,-12 -12,-8 -20,-19 -24,-32l0 127 -38 0 0 -265 38 0 0 41c4,-13 12,-24 24,-32 11,-8 25,-12 42,-12zm-12 33c-10,0 -20,2 -28,7 -8,5 -15,12 -20,21 -4,9 -7,20 -7,31 0,12 3,23 7,32 5,9 12,16 20,21 8,4 18,7 28,7 17,0 30,-5 40,-16 10,-11 15,-25 15,-44 0,-18 -5,-32 -15,-43 -10,-11 -23,-16 -40,-16zm296 51c0,6 0,11 -1,16l-139 0c1,18 6,32 16,41 9,9 21,13 35,13 13,0 23,-3 32,-9 8,-6 14,-15 16,-25l40 0c-3,12 -8,24 -15,34 -8,9 -18,17 -30,23 -12,5 -26,8 -41,8 -18,0 -33,-4 -46,-11 -14,-8 -24,-18 -32,-32 -7,-14 -11,-31 -11,-50 0,-18 4,-35 11,-49 8,-14 18,-24 32,-32 13,-7 28,-11 46,-11 18,0 33,4 46,11 13,8 23,18 31,30 7,13 10,27 10,43zm-37 -1c0,-12 -2,-22 -6,-30 -5,-8 -11,-13 -19,-17 -7,-4 -16,-6 -25,-6 -15,0 -27,4 -37,13 -9,9 -15,23 -16,40l103 0zm132 -83c21,0 38,6 51,16 13,11 21,26 23,44l-35 0c-1,-10 -6,-18 -12,-24 -7,-6 -16,-9 -28,-9 -9,0 -16,2 -21,7 -6,4 -8,10 -8,18 0,6 2,10 5,14 4,3 9,6 14,8 6,2 14,4 24,6 14,3 24,7 33,10 8,3 15,8 21,15 6,7 9,17 9,29 0,15 -5,27 -17,37 -11,9 -27,14 -46,14 -22,0 -41,-5 -54,-16 -14,-10 -23,-25 -25,-44l36 0c1,10 5,18 13,24 8,6 18,9 30,9 9,0 16,-2 21,-7 5,-4 8,-10 8,-17 0,-7 -2,-12 -6,-15 -4,-4 -9,-7 -15,-9 -6,-2 -14,-4 -24,-6 -13,-4 -24,-7 -32,-10 -8,-3 -15,-8 -21,-14 -6,-7 -8,-17 -8,-28 0,-16 5,-28 17,-38 11,-9 27,-14 47,-14zm186 0c16,0 30,4 42,12 11,8 19,19 24,32l0 -41 37 0 0 180 -37 0 0 -42c-5,13 -13,24 -24,32 -12,8 -26,12 -42,12 -16,0 -30,-4 -42,-11 -12,-8 -22,-18 -29,-32 -7,-14 -10,-31 -10,-50 0,-18 3,-35 10,-49 7,-14 17,-24 29,-32 12,-7 26,-11 42,-11zm11 33c-16,0 -29,5 -39,16 -10,10 -15,25 -15,43 0,19 5,33 15,44 10,11 23,16 39,16 11,0 20,-3 28,-7 9,-5 15,-12 20,-21 5,-9 7,-20 7,-32 0,-11 -2,-22 -7,-31 -5,-9 -11,-16 -20,-21 -8,-5 -17,-7 -28,-7zm238 -33c21,0 38,6 50,20 13,13 19,33 19,58l0 105 -37 0 0 -101c0,-16 -4,-29 -13,-38 -8,-9 -19,-13 -34,-13 -14,0 -26,5 -35,14 -9,10 -14,24 -14,42l0 96 -37 0 0 -180 37 0 0 39c5,-13 13,-24 25,-31 11,-8 24,-11 39,-11z"/>
  <path class="fil1" d="M4111 608l0 312 -51 0 0 -140 -146 0 0 140 -50 0 0 -312 50 0 0 131 146 0 0 -131 51 0zm159 65c22,0 40,6 56,17 16,11 27,25 33,43l0 -57 50 0 0 244 -50 0 0 -57c-6,18 -17,32 -33,43 -16,11 -34,17 -56,17 -22,0 -40,-5 -57,-15 -17,-10 -30,-25 -39,-44 -10,-18 -14,-41 -14,-66 0,-25 4,-48 14,-66 9,-19 22,-34 39,-44 17,-10 35,-15 57,-15zm15 45c-22,0 -40,7 -54,21 -13,14 -20,34 -20,59 0,25 7,44 20,59 14,14 32,21 54,21 14,0 27,-3 38,-10 11,-6 20,-16 26,-28 7,-12 10,-26 10,-42 0,-16 -3,-30 -10,-42 -6,-13 -15,-22 -26,-29 -11,-6 -24,-9 -38,-9zm178 -112c0,-9 3,-16 9,-21 6,-6 13,-9 23,-9 10,0 18,3 24,9 6,5 9,12 9,21 0,8 -3,15 -9,21 -6,5 -14,8 -24,8 -10,0 -17,-3 -23,-8 -6,-6 -9,-13 -9,-21zm57 70l0 244 -50 0 0 -244 50 0zm92 209c5,14 8,28 8,42 0,17 -4,30 -13,40 -8,11 -21,16 -39,16l0 -20c8,0 13,-2 17,-6 3,-4 5,-10 5,-19l0 -4 -26 0 0 -49 48 0zm343 -33l-131 0 -24 68 -54 0 115 -307 58 0 114 307 -54 0 -24 -68zm-14 -39l-52 -145 -51 145 103 0zm227 -140c22,0 41,6 56,17 16,11 27,25 33,43l0 -140 51 0 0 327 -51 0 0 -57c-6,18 -17,32 -33,43 -15,11 -34,17 -56,17 -21,0 -40,-5 -57,-15 -16,-10 -29,-25 -39,-44 -9,-18 -14,-41 -14,-66 0,-25 5,-48 14,-66 10,-19 23,-34 39,-44 17,-10 36,-15 57,-15zm15 45c-22,0 -40,7 -53,21 -14,14 -20,34 -20,59 0,25 6,44 20,59 13,14 31,21 53,21 14,0 27,-3 38,-10 11,-6 20,-16 27,-28 6,-12 9,-26 9,-42 0,-16 -3,-30 -9,-42 -7,-13 -16,-22 -27,-29 -11,-6 -24,-9 -38,-9zm283 -45c22,0 41,6 56,17 16,11 27,25 33,43l0 -57 51 0 0 244 -51 0 0 -57c-6,18 -17,32 -33,43 -15,11 -34,17 -56,17 -22,0 -40,-5 -57,-15 -17,-10 -30,-25 -39,-44 -9,-18 -14,-41 -14,-66 0,-25 5,-48 14,-66 9,-19 22,-34 39,-44 17,-10 35,-15 57,-15zm15 45c-22,0 -40,7 -54,21 -13,14 -20,34 -20,59 0,25 7,44 20,59 14,14 32,21 54,21 14,0 27,-3 38,-10 11,-6 20,-16 27,-28 6,-12 9,-26 9,-42 0,-16 -3,-30 -9,-42 -7,-13 -16,-22 -27,-29 -11,-6 -24,-9 -38,-9zm523 -110l-103 198 0 114 -51 0 0 -114 -104 -198 58 0 72 144 71 -144 57 0zm135 65c22,0 41,6 57,17 15,11 26,25 33,43l0 -57 50 0 0 244 -50 0 0 -57c-7,18 -18,32 -33,43 -16,11 -35,17 -57,17 -21,0 -40,-5 -56,-15 -17,-10 -30,-25 -39,-44 -10,-18 -15,-41 -15,-66 0,-25 5,-48 15,-66 9,-19 22,-34 39,-44 16,-10 35,-15 56,-15zm16 45c-23,0 -40,7 -54,21 -13,14 -20,34 -20,59 0,25 7,44 20,59 14,14 31,21 54,21 14,0 27,-3 38,-10 11,-6 20,-16 26,-28 7,-12 10,-26 10,-42 0,-16 -3,-30 -10,-42 -6,-13 -15,-22 -26,-29 -11,-6 -24,-9 -38,-9zm321 -45c28,0 50,9 67,27 18,18 26,44 26,78l0 142 -50 0 0 -137c0,-22 -6,-38 -17,-50 -11,-12 -26,-18 -46,-18 -20,0 -36,6 -48,19 -12,13 -18,32 -18,56l0 130 -50 0 0 -244 50 0 0 54c6,-18 17,-32 33,-42 15,-10 33,-15 53,-15zm249 0c22,0 41,6 57,17 15,11 26,25 33,43l0 -57 50 0 0 246c0,23 -5,43 -14,60 -9,18 -22,32 -40,42 -17,10 -38,15 -62,15 -34,0 -61,-8 -82,-25 -21,-16 -34,-38 -40,-65l50 0c4,14 12,25 24,33 12,9 27,13 45,13 20,0 36,-7 49,-19 13,-12 20,-30 20,-54l0 -59c-7,18 -18,32 -33,43 -16,11 -35,17 -57,17 -21,0 -40,-5 -56,-15 -17,-10 -30,-25 -40,-44 -9,-18 -14,-41 -14,-66 0,-25 5,-48 14,-66 10,-19 23,-34 40,-44 16,-10 35,-15 56,-15zm16 45c-23,0 -41,7 -54,21 -13,14 -20,34 -20,59 0,25 7,44 20,59 13,14 31,21 54,21 14,0 26,-3 38,-10 11,-6 20,-16 26,-28 7,-12 10,-26 10,-42 0,-16 -3,-30 -10,-42 -6,-13 -15,-22 -26,-29 -12,-6 -24,-9 -38,-9zm427 -45c21,0 40,5 57,15 16,10 29,25 39,44 9,18 14,41 14,66 0,25 -5,48 -14,66 -10,19 -23,34 -39,44 -17,10 -36,15 -57,15 -22,0 -41,-6 -56,-17 -16,-11 -27,-25 -33,-43l0 57 -50 0 0 -327 50 0 0 140c6,-18 17,-32 33,-43 15,-11 34,-17 56,-17zm-15 45c-14,0 -27,3 -38,9 -11,7 -20,16 -27,29 -6,12 -9,26 -9,42 0,16 3,30 9,42 7,12 16,22 27,28 11,7 24,10 38,10 22,0 40,-7 54,-21 13,-15 20,-34 20,-59 0,-25 -7,-44 -20,-59 -14,-14 -32,-21 -54,-21zm166 -112c0,-9 3,-16 9,-21 6,-6 14,-9 24,-9 9,0 17,3 23,9 6,5 9,12 9,21 0,8 -3,15 -9,21 -6,5 -14,8 -23,8 -10,0 -18,-3 -24,-8 -6,-6 -9,-13 -9,-21zm58 70l0 244 -50 0 0 -244 50 0zm141 -3c28,0 51,8 68,22 17,15 28,34 32,59l-48 0c-2,-14 -8,-24 -17,-32 -9,-8 -21,-12 -37,-12 -12,0 -22,3 -29,9 -7,6 -10,14 -10,24 0,8 2,14 7,19 5,4 11,8 19,11 7,2 18,5 32,8 18,5 33,9 44,13 11,5 21,12 29,21 8,10 12,23 12,39 0,21 -7,37 -23,50 -15,12 -36,19 -62,19 -31,0 -55,-7 -74,-22 -18,-14 -30,-33 -33,-59l49 0c1,14 7,24 17,33 10,8 24,12 41,12 12,0 21,-3 28,-10 7,-6 11,-14 11,-24 0,-8 -3,-15 -8,-20 -6,-5 -12,-9 -20,-12 -8,-2 -19,-5 -33,-8 -17,-4 -32,-8 -43,-13 -11,-4 -20,-10 -28,-20 -8,-9 -12,-21 -12,-37 0,-21 8,-38 23,-50 16,-13 37,-20 65,-20zm250 0c22,0 41,6 57,17 15,11 26,25 33,43l0 -57 50 0 0 244 -50 0 0 -57c-7,18 -18,32 -33,43 -16,11 -35,17 -57,17 -21,0 -40,-5 -57,-15 -16,-10 -29,-25 -39,-44 -9,-18 -14,-41 -14,-66 0,-25 5,-48 14,-66 10,-19 23,-34 39,-44 17,-10 36,-15 57,-15zm16 45c-23,0 -41,7 -54,21 -13,14 -20,34 -20,59 0,25 7,44 20,59 13,14 31,21 54,21 14,0 26,-3 38,-10 11,-6 20,-16 26,-28 7,-12 10,-26 10,-42 0,-16 -3,-30 -10,-42 -6,-13 -15,-22 -26,-29 -12,-6 -24,-9 -38,-9z"/>
  <path class="fil1" d="M5342 1449l-87 -108 0 108 -51 0 0 -326 51 0 0 187 86 -104 61 0 -106 121 108 122 -62 0zm192 -246c23,0 41,5 57,16 16,11 27,25 33,43l0 -56 50 0 0 243 -50 0 0 -56c-6,17 -17,32 -33,43 -16,11 -34,16 -57,16 -21,0 -40,-5 -56,-15 -17,-10 -30,-24 -39,-43 -10,-19 -14,-41 -14,-67 0,-25 4,-47 14,-66 9,-19 22,-33 39,-43 16,-10 35,-15 56,-15zm16 44c-22,0 -40,7 -54,21 -13,15 -20,34 -20,59 0,25 7,45 20,59 14,14 32,22 54,22 14,0 27,-4 38,-10 11,-7 20,-16 26,-28 7,-12 10,-27 10,-43 0,-16 -3,-30 -10,-42 -6,-12 -15,-22 -26,-28 -11,-7 -24,-10 -38,-10zm489 -45c29,0 52,9 69,27 17,19 26,45 26,78l0 142 -51 0 0 -136c0,-22 -5,-38 -16,-50 -10,-11 -25,-17 -43,-17 -20,0 -36,6 -47,19 -12,12 -18,31 -18,55l0 129 -50 0 0 -136c0,-22 -5,-38 -16,-50 -10,-11 -25,-17 -44,-17 -19,0 -35,6 -46,19 -12,12 -18,31 -18,55l0 129 -50 0 0 -243 50 0 0 51c6,-18 17,-32 31,-41 14,-9 31,-14 51,-14 20,0 38,5 52,15 15,10 26,24 33,43 7,-18 18,-32 34,-43 15,-10 33,-15 53,-15zm146 -67c0,-8 3,-15 9,-21 6,-5 14,-8 23,-8 10,0 18,3 24,8 6,6 9,13 9,21 0,9 -3,16 -9,21 -6,5 -14,8 -24,8 -9,0 -17,-3 -23,-8 -6,-5 -9,-12 -9,-21zm58 71l0 243 -51 0 0 -243 51 0zm303 -3c21,0 40,5 57,15 16,10 29,24 39,43 9,19 14,41 14,66 0,26 -5,48 -14,67 -10,19 -23,33 -39,43 -17,10 -36,15 -57,15 -22,0 -41,-5 -56,-16 -16,-11 -27,-26 -33,-43l0 56 -50 0 0 -326 50 0 0 139c6,-18 17,-32 33,-43 15,-11 34,-16 56,-16zm-15 44c-14,0 -27,3 -38,10 -11,6 -20,16 -27,28 -6,12 -9,26 -9,42 0,16 3,31 9,43 7,12 16,21 27,28 11,6 24,10 38,10 22,0 40,-8 53,-22 14,-14 21,-34 21,-59 0,-24 -7,-44 -21,-58 -13,-15 -31,-22 -53,-22zm271 -44c22,0 41,5 56,16 16,11 27,25 34,43l0 -56 50 0 0 243 -50 0 0 -56c-7,17 -18,32 -34,43 -15,11 -34,16 -56,16 -21,0 -40,-5 -57,-15 -16,-10 -29,-24 -39,-43 -9,-19 -14,-41 -14,-67 0,-25 5,-47 14,-66 10,-19 23,-33 39,-43 17,-10 36,-15 57,-15zm15 44c-22,0 -40,7 -53,21 -14,15 -20,34 -20,59 0,25 6,45 20,59 13,14 31,22 53,22 15,0 27,-4 38,-10 12,-7 20,-16 27,-28 6,-12 10,-27 10,-43 0,-16 -4,-30 -10,-42 -7,-12 -15,-22 -27,-28 -11,-7 -23,-10 -38,-10zm321 -45c28,0 51,9 68,27 17,19 26,45 26,78l0 142 -51 0 0 -136c0,-22 -5,-39 -16,-51 -12,-12 -27,-18 -46,-18 -20,0 -36,7 -48,19 -12,13 -18,32 -18,57l0 129 -51 0 0 -243 51 0 0 53c6,-18 17,-32 32,-42 16,-10 33,-15 53,-15zm275 203l0 44 -31 0c-26,0 -46,-6 -59,-19 -14,-12 -20,-33 -20,-62l0 -119 -35 0 0 -43 35 0 0 -61 50 0 0 61 59 0 0 43 -59 0 0 120c0,14 3,23 8,28 5,6 14,8 27,8l25 0zm271 -199l0 243 -51 0 0 -53c-6,18 -17,32 -32,42 -15,10 -33,15 -53,15 -29,0 -51,-10 -68,-28 -17,-18 -26,-44 -26,-78l0 -141 50 0 0 136c0,22 6,39 17,51 11,12 27,18 46,18 20,0 36,-7 48,-20 12,-13 18,-32 18,-56l0 -129 51 0zm144 -83c29,0 53,7 70,23 18,16 27,38 27,67 0,30 -10,53 -29,69 -19,15 -44,23 -77,24l0 48 -48 0 0 -82 21 0c26,0 46,-4 61,-13 15,-8 22,-23 22,-46 0,-15 -4,-27 -13,-36 -9,-9 -21,-13 -36,-13 -16,0 -29,5 -38,14 -10,9 -15,21 -15,35l-48 0c0,-17 4,-33 12,-47 8,-13 20,-24 36,-32 15,-8 34,-11 55,-11zm-4 270l0 56 -57 0 0 -56 57 0z"/>
  <g id="_2597414997264">
   <image x="0" y="-1" width="3821" height="3839" xlink:href="cs_Images\cs_ImgID1.png"/>
  </g>
  <path class="fil0" d="M3416 1789c0,900 -730,1629 -1630,1629 -900,0 -1629,-729 -1629,-1629 0,-900 729,-1630 1629,-1630 900,0 1630,730 1630,1630z"/>
  <path class="fil2" d="M1387 878c-134,16 -255,107 -319,227l0 0c-65,119 -76,264 -44,396l0 0c16,66 43,131 58,198l0 0c14,67 16,141 -17,202l0 0c-68,126 -249,144 -344,253l0 0c-78,89 -80,226 -36,337l0 0c45,110 128,200 211,285l0 0c387,13 781,14 1167,27l0 0c151,5 317,-42 467,-51l0 0c81,-124 105,-285 61,-427l0 0c-27,-89 -79,-173 -86,-266l0 0c-14,-187 156,-338 191,-522l0 0c15,-81 -2,-176 -68,-225l0 0c-65,-48 -158,-38 -232,-4l0 0c-74,34 -137,88 -208,128l0 0c-71,40 -158,64 -233,33l0 0c-76,-32 -119,-113 -143,-192l0 0c-24,-79 -36,-163 -77,-234l0 0c-61,-106 -183,-168 -305,-168l0 0c-14,0 -28,1 -43,3l0 0z"/>
  <path class="fil3" d="M2393 1347c-1,110 103,205 85,313 -10,58 -54,116 -28,169 22,46 87,55 137,39 116,-35 186,-154 220,-270 32,-110 40,-232 -11,-334 -41,-83 -136,-155 -231,-149 -88,7 -171,150 -172,232z"/>
  <path class="fil3" d="M877 1146c-78,129 -81,299 -9,432 23,41 53,80 95,104 42,23 95,28 137,4 62,-35 76,-120 71,-192 -5,-72 -21,-147 7,-214 18,-44 52,-77 83,-113 31,-36 60,-77 61,-124 4,-122 -125,-113 -203,-88 -100,33 -188,100 -242,191z"/>
  <g id="_2597643642592">
   <image x="0" y="-1" width="3821" height="3839" xlink:href="cs_Images\cs_ImgID2.png"/>
  </g>
  <path class="fil4" d="M870 2027c15,-38 14,-77 1,-112 -35,8 -66,31 -82,69 -7,16 -10,33 -10,51 -12,-33 -24,-66 -33,-100 30,-10 56,-32 74,-64 19,-35 23,-75 15,-112 -35,3 -69,22 -90,58 -9,15 -15,32 -17,49 -5,-23 -10,-46 -14,-68 15,-30 22,-65 19,-103 -4,-44 -22,-84 -48,-113 -27,29 -43,73 -39,121 4,40 21,75 45,98 2,9 4,18 5,27 -9,-15 -20,-29 -34,-40 -32,-29 -69,-41 -105,-35 4,48 25,93 59,121 30,26 65,32 96,26 9,34 19,69 31,102 -12,-13 -25,-25 -40,-35 -35,-24 -74,-30 -108,-18 10,45 37,87 74,110 34,20 69,22 99,11 13,33 28,65 44,97 -13,-12 -27,-22 -43,-29 -39,-19 -78,-20 -110,-3 16,43 48,81 89,98 36,15 71,12 99,-3 18,31 37,61 57,90 -14,-10 -30,-18 -47,-23 -41,-13 -80,-8 -109,12 22,41 59,74 101,85 38,11 72,3 98,-16 22,28 45,55 69,81 -15,-8 -32,-14 -50,-16 -42,-7 -80,3 -106,27 27,37 69,65 112,70 39,5 72,-7 95,-30 26,25 53,49 81,71 -17,-5 -35,-8 -52,-9 -43,-1 -80,14 -102,42 32,33 78,55 122,54 39,0 70,-17 90,-42 47,34 98,65 150,93 7,4 15,2 18,-4 3,-6 0,-13 -7,-17 -39,-20 -76,-42 -112,-66 17,-28 22,-62 15,-97 -9,-40 -31,-73 -60,-96 -25,25 -40,62 -33,103 3,17 10,33 19,48 -28,-22 -55,-44 -82,-67 21,-25 31,-58 29,-94 -2,-40 -19,-76 -45,-102 -29,21 -48,55 -47,97 1,17 5,34 12,49 -25,-24 -49,-50 -71,-77 24,-21 38,-52 41,-88 4,-40 -8,-78 -30,-108 -31,18 -55,49 -59,90 -2,17 -1,34 4,51 -21,-28 -41,-57 -59,-86 26,-18 45,-47 53,-82 9,-39 3,-78 -15,-111 -33,13 -61,41 -71,81 -5,16 -5,34 -3,51 -17,-31 -33,-62 -47,-94 29,-14 52,-40 64,-73z"/>
  <path class="fil4" d="M2730 2266c-6,-35 2,-69 18,-97 29,13 52,39 59,74 3,15 3,30 0,45 16,-26 32,-53 46,-80 -25,-14 -44,-38 -53,-68 -11,-33 -8,-68 5,-99 30,9 56,31 68,66 5,14 7,29 7,44 8,-18 16,-37 23,-56 -8,-28 -8,-60 1,-91 11,-38 33,-69 60,-89 19,29 25,70 13,110 -10,34 -30,61 -55,77 -3,8 -6,15 -9,22 11,-11 23,-21 36,-29 33,-19 67,-24 96,-12 -11,40 -36,76 -70,94 -31,17 -62,17 -88,6 -13,29 -27,56 -43,83 12,-9 25,-17 40,-23 34,-15 69,-14 96,2 -16,38 -46,69 -82,82 -33,12 -63,8 -87,-7 -17,26 -36,52 -55,76 13,-8 28,-14 43,-18 36,-9 70,-3 95,16 -21,35 -56,62 -93,70 -34,7 -63,-1 -85,-19 -21,23 -42,46 -64,67 14,-6 29,-10 44,-11 37,-4 70,6 92,29 -26,31 -63,53 -102,56 -34,2 -62,-10 -81,-31 -24,20 -48,40 -73,58 14,-4 30,-6 45,-6 38,2 69,17 87,42 -29,28 -70,44 -108,41 -35,-2 -61,-18 -77,-41 -26,17 -53,33 -81,47 15,-1 31,-1 46,1 37,6 66,26 81,53 -34,24 -76,34 -114,27 -34,-7 -58,-27 -71,-52 -46,21 -95,40 -145,55 -6,2 -13,-1 -14,-7 -2,-5 2,-11 8,-13 37,-11 73,-24 108,-38 -10,-27 -8,-57 4,-86 14,-33 38,-58 68,-73 17,27 23,60 10,94 -5,14 -14,27 -24,38 28,-13 55,-28 81,-44 -13,-24 -16,-54 -8,-85 8,-34 29,-62 56,-80 20,23 31,55 23,91 -3,15 -9,28 -18,41 26,-17 50,-36 74,-55 -17,-22 -24,-52 -21,-83 4,-35 21,-65 44,-87 24,20 39,51 37,87 -2,15 -6,29 -13,43 23,-21 45,-42 66,-64 -20,-20 -32,-48 -32,-79 -2,-35 11,-68 31,-93 26,17 46,45 48,81 1,15 -1,30 -6,44 20,-23 38,-47 56,-72 -23,-17 -38,-43 -43,-74z"/>
  <path class="fil3" d="M2878 2825l-2260 0c-23,0 -41,-19 -41,-42 0,-23 18,-42 41,-42l2260 0c23,0 42,19 42,42 0,23 -19,42 -42,42z"/>
  <path class="fil5" d="M1293 2173c-47,-27 -81,-75 -91,-127 -11,-53 1,-109 33,-153 25,-33 62,-62 67,-103 5,-43 -28,-80 -42,-121 -18,-49 -9,-108 23,-149 24,-30 59,-52 74,-86 10,-22 11,-47 14,-70 3,-24 8,-49 23,-67 16,-18 45,-26 64,-12 37,-37 79,-82 127,-103 48,-20 105,-22 150,4 36,21 59,56 90,83 27,23 59,39 88,60 29,20 56,46 64,81 15,56 -23,112 -24,170 -2,56 30,108 37,164 7,57 -12,115 -42,163 -30,49 -71,90 -111,130 -17,73 -71,125 -139,155 -69,29 -146,34 -221,32 -61,-2 -132,-20 -184,-51z"/>
  <path class="fil6" d="M1376 2025c-16,-20 -15,-49 -9,-74 7,-25 19,-49 24,-74 7,-34 1,-70 -6,-104 -7,-34 -16,-68 -15,-103 1,-35 12,-71 39,-94 93,-79 245,-51 366,-38 62,6 104,65 124,124 19,59 12,124 -11,181 -23,58 -62,107 -106,151 -26,26 -73,5 -109,12 -36,7 -66,29 -100,43 -53,22 -114,24 -169,6 -16,-6 -30,-13 -28,-30z"/>
  <path class="fil7" d="M2048 2086c-44,-57 -108,-98 -177,-116 -32,-8 -66,-11 -97,-21 -9,-3 -18,-6 -26,-10 -13,-49 -19,-99 -19,-148l-84 0 -15 0 -85 0c0,49 -6,99 -18,148 -9,4 -18,7 -27,10 -31,10 -64,13 -96,21 -70,18 -134,59 -178,116 -44,57 -68,129 -67,201l0 456 824 -12c73,-1 132,-60 132,-133l0 -311c1,-72 -23,-144 -67,-201z"/>
  <path class="fil8" d="M1540 1869c66,0 132,-18 190,-51 0,-9 -1,-18 -1,-27l-85 0 -14 0 -85 0c0,26 -2,52 -5,78z"/>
  <path class="fil7" d="M1462 1552c-7,-14 -16,-28 -30,-36 -13,-7 -33,-7 -43,4 -9,10 -9,24 -8,37 1,26 7,52 22,73 16,20 43,34 68,27 4,-35 8,-74 -9,-105z"/>
  <path class="fil9" d="M1461 1579c1,1 2,1 2,1 -3,-9 -7,-17 -11,-25 -5,-8 -12,-15 -20,-19 -8,-4 -18,-5 -27,-2 -8,4 -14,13 -14,22 5,-6 14,-7 22,-6 7,2 14,7 16,15 -6,1 -11,7 -13,14 -1,6 1,13 3,19 2,3 4,7 6,10 3,2 7,4 11,4 -4,5 -10,8 -15,9 12,6 28,5 39,-3 2,-13 2,-26 1,-39z"/>
  <path class="fil7" d="M1800 1565c8,-13 17,-27 30,-35 14,-8 33,-8 44,4 8,9 9,23 8,36 -2,26 -7,53 -23,73 -15,21 -42,34 -67,28 -4,-36 -9,-74 8,-106z"/>
  <path class="fil9" d="M1802 1593c-1,0 -2,0 -3,0 4,-8 7,-17 12,-25 5,-7 11,-14 20,-19 8,-4 18,-5 26,-1 9,4 15,12 14,22 -5,-6 -14,-8 -21,-6 -8,1 -14,7 -17,14 7,1 12,8 13,14 2,7 0,13 -3,19 -1,4 -3,7 -6,10 -2,3 -6,5 -10,5 3,4 9,8 15,8 -12,6 -28,5 -40,-2 -1,-13 -1,-26 0,-39z"/>
  <path class="fil10" d="M1498 1578c0,30 -24,54 -53,54 -30,0 -53,-24 -53,-54 0,-29 23,-53 53,-53 29,0 53,24 53,53z"/>
  <path class="fil10" d="M1875 1578c0,30 -24,54 -54,54 -29,0 -53,-24 -53,-54 0,-29 24,-53 53,-53 30,0 54,24 54,53z"/>
  <path class="fil7" d="M1821 1590c0,140 -84,254 -188,254 -104,0 -189,-114 -189,-254 0,-140 0,-254 189,-254 188,0 188,114 188,254z"/>
  <g id="_2597497823200">
   <image x="0" y="-1" width="3821" height="3839" xlink:href="cs_Images\cs_ImgID3.png"/>
  </g>
  <g id="_2597497822848">
   <image x="0" y="-1" width="3821" height="3839" xlink:href="cs_Images\cs_ImgID4.png"/>
  </g>
  <g id="_2597497822944">
   <image x="0" y="-1" width="3821" height="3839" xlink:href="cs_Images\cs_ImgID5.png"/>
  </g>
  <path class="fil5" d="M1375 1603c63,-46 113,-112 139,-186 45,42 108,64 170,61 -13,-5 -21,-16 -29,-27 59,14 110,50 149,96 15,19 29,40 47,57 18,17 41,30 66,27 -15,-65 -30,-132 -55,-194 -15,-38 -32,-76 -64,-103 -39,-33 -93,-41 -144,-37 -54,4 -107,20 -154,48 -63,39 -112,99 -138,168 -5,15 -10,31 -9,48 1,16 9,32 22,42z"/>
  <path class="fil11" d="M1445 1645c0,9 -8,17 -18,17 -9,0 -17,-8 -17,-17 0,-10 8,-17 17,-17 10,0 18,7 18,17z"/>
  <path class="fil11" d="M1856 1645c0,9 -8,17 -18,17 -9,0 -17,-8 -17,-17 0,-10 8,-17 17,-17 10,0 18,7 18,17z"/>
  <path class="fil12" d="M1533 1521c-6,0 -12,5 -15,12l15 14 -15 15c3,7 9,12 15,12 9,0 17,-12 17,-27 0,-14 -8,-26 -17,-26z"/>
  <path class="fil12" d="M1733 1521c-6,0 -11,5 -14,12l14 14 -14 15c3,7 8,12 14,12 10,0 18,-12 18,-27 0,-14 -8,-26 -18,-26z"/>
  <path class="fil1" d="M1871 1970c-27,-7 -54,-10 -81,-16 -56,257 -95,519 -118,782l311 -5c73,-1 132,-60 132,-133l0 -311c1,-72 -23,-144 -67,-201 -44,-57 -108,-98 -177,-116z"/>
  <path class="fil1" d="M1490 1952c-28,8 -58,11 -86,18 -70,18 -134,59 -178,116 -44,57 -68,129 -67,201l0 456 449 -6c-22,-264 -62,-526 -118,-785z"/>
  <path class="fil13" d="M1404 1970c-10,2 -20,5 -29,9 -22,61 -42,124 -60,186 34,20 67,44 104,60 -13,32 -27,68 -41,101 68,130 127,273 175,411l55 0c-27,-262 -75,-522 -142,-779 -21,4 -42,7 -62,12z"/>
  <path class="fil13" d="M1902 2326c-13,-33 -27,-69 -40,-101 36,-16 69,-40 102,-60 -17,-62 -36,-123 -57,-184 -12,-4 -24,-8 -36,-11 -20,-5 -40,-8 -60,-12 -66,257 -112,517 -139,778l61 -1c46,-138 103,-279 169,-409z"/>
  <path class="fil13" d="M1490 1952c-23,6 -47,10 -70,14 -20,66 -37,132 -53,199 28,20 55,44 86,60 -11,32 -23,68 -34,101 56,130 104,273 143,411l46 0c-22,-264 -62,-526 -118,-785z"/>
  <path class="fil14" d="M1644 1059c72,0 183,105 199,121 15,15 99,144 99,144 -32,99 -74,154 -74,154 0,0 -14,-127 -73,-178 -58,-51 -242,-60 -305,14 -64,74 -69,164 -69,164 0,0 -51,-57 -83,-155 0,0 83,-132 98,-148 13,-15 141,-116 208,-116z"/>
  <path class="fil14" d="M1402 1361c0,80 65,125 244,125 179,0 237,-41 237,-125 0,-49 -196,-125 -240,-125 -45,0 -241,71 -241,125z"/>
  <path class="fil15" d="M1930 1358c-186,-41 -327,-68 -580,-3l10 23c253,-65 375,-37 561,3l9 -23z"/>
  <path class="fil16" d="M1609 1123c3,2 7,3 10,4 1,0 1,0 2,1 6,1 11,2 17,2l0 0c8,0 16,-2 24,-4 1,-1 3,-2 4,-2 0,0 1,0 1,0 -9,-4 -19,-7 -29,-7l0 0 0 0c-10,0 -20,2 -29,6zm-4 32c3,-9 7,-17 13,-25 0,0 0,0 0,0 -4,-1 -8,-3 -12,-5 -6,3 -12,8 -17,13 -3,2 -5,5 -7,8 6,3 13,6 21,9 0,0 1,0 2,0zm-3 32c0,-3 0,-7 0,-9 0,-7 0,-14 2,-20 -1,0 -1,0 -2,0 -8,-3 -15,-6 -22,-10 -7,11 -11,24 -11,39l0 0 0 0 0 0 33 0zm5 -28c-2,6 -2,12 -2,19 0,2 0,6 0,9l31 0 0 -24c-10,0 -20,-2 -29,-4zm15 -28c-6,7 -11,16 -14,25 9,2 19,4 28,4l0 -27c-5,0 -10,-1 -14,-2zm46 25c-3,-9 -8,-18 -14,-25 -5,1 -10,2 -15,2l0 27c10,0 20,-2 29,-4zm3 31c0,-3 0,-7 0,-9 0,-7 -1,-13 -2,-19 -10,2 -20,4 -30,4l0 24 32 0zm1 -29c1,6 2,13 2,20 0,2 0,6 0,9l33 0 0 0 0 0 0 0c0,-15 -4,-28 -11,-39 -2,1 -4,2 -5,3 -3,1 -6,2 -8,3 -4,2 -8,3 -11,4zm-14 -28c5,8 10,16 13,25 4,-1 7,-2 11,-4 2,-1 5,-2 7,-3 2,-1 3,-2 5,-2 -2,-3 -5,-6 -7,-8 -5,-5 -11,-9 -17,-13 -1,1 -2,1 -3,2 -1,0 -3,1 -4,1 -2,1 -4,2 -5,2zm2 61c-5,1 -13,4 -18,7 -1,1 -1,2 -2,3 0,0 0,0 -1,1l0 0 10 0c4,0 7,1 8,3l0 0c0,1 0,2 0,3l2 0c4,0 7,2 8,4 0,1 1,1 1,2 0,0 0,0 0,1l0 0 1 2 -3 0c-1,-1 -3,-1 -6,-1 -4,0 -8,1 -12,2 -4,2 -7,4 -8,7 0,1 -1,2 -1,3l0 18c16,0 31,-7 41,-17 10,-10 16,-23 17,-38l-37 0zm-21 7c1,-1 1,-1 2,-2 2,-2 6,-3 9,-5l-11 0 0 7zm-55 9c7,23 28,39 52,40l0 -19c0,-1 1,-2 1,-4 1,-4 5,-7 9,-8 5,-2 11,-3 15,-3 1,0 2,0 4,0 -2,-1 -3,-2 -5,-2l-4 0 -2 0 1 -2c0,0 0,-2 0,-3l0 0c-1,0 -2,-1 -5,-1l-14 0 0 -14 -67 0c6,9 18,15 28,17 -5,0 -8,0 -13,-1zm52 69l0 -25c-27,-1 -49,-20 -56,-45 -4,-2 -7,-3 -10,-5 3,13 10,25 19,35 7,6 15,12 24,15 3,1 6,3 9,5 7,4 12,11 14,20zm72 -81l4 0 -3 12 -3 -1c-1,3 -2,6 -3,9l3 2 -6 11 -3 -2c-2,2 -4,5 -6,7l4 3 -9 9 -3 -4c-3,2 -5,4 -8,6l3 4 -12 6 -2 -5c-2,1 -5,2 -8,3l1 5 -12 2 -1 -5c-1,0 -3,0 -5,0l0 27 -3 0c0,-3 -4,-11 -8,-17 -5,-6 -12,-10 -15,-11 -11,-4 -20,-10 -27,-17 -13,-14 -22,-32 -22,-52l0 0 0 0c0,-21 9,-39 22,-52 13,-14 32,-22 52,-22l0 0 0 0c20,0 39,8 52,22 13,13 22,31 22,52l0 0 0 0c0,1 0,3 -1,4l-3 0c0,1 0,2 0,4z"/>
  <path class="fil17" d="M1605 1155c-1,0 -2,0 -2,0 -8,-3 -15,-6 -21,-9 2,-3 4,-6 7,-8 5,-5 11,-10 17,-13 4,2 8,4 12,5 0,0 0,0 0,0 -6,7 -10,16 -13,25zm-3 32c0,-3 0,-7 0,-9 0,-7 0,-14 2,-20 -1,0 -1,0 -2,0 -8,-3 -15,-6 -22,-10 -7,11 -11,24 -11,39l0 0 0 0 0 0 33 0zm5 -28c9,2 19,4 29,4l0 24 -31 0c0,-3 0,-7 0,-9 0,-7 0,-13 2,-19zm15 -28c-6,7 -11,16 -14,25 9,2 19,4 28,4l0 -27c-5,0 -10,-1 -14,-2zm46 25c-3,-9 -8,-18 -14,-25 -5,1 -10,2 -15,2l0 27c10,0 20,-2 29,-4zm3 31c0,-3 0,-7 0,-9 0,-7 -1,-13 -2,-19 -10,2 -20,4 -30,4l0 24 32 0zm1 -29c1,6 2,13 2,20 0,2 0,6 0,9l33 0 0 0 0 0 0 0c0,-15 -4,-28 -11,-39 -2,1 -4,2 -5,3 -3,1 -6,2 -8,3 -4,2 -8,3 -11,4zm-14 -28c1,0 3,-1 5,-2 1,0 3,-1 4,-1 1,-1 2,-1 3,-2 6,4 12,8 17,13 2,2 5,5 7,8 -2,0 -3,1 -5,2 -2,1 -5,2 -7,3 -4,2 -7,3 -11,4 -3,-9 -8,-17 -13,-25zm2 61c-5,1 -13,4 -18,7 -1,1 -1,2 -2,3 0,0 0,0 -1,1l0 0 10 0c4,0 7,1 8,3l0 0c0,1 0,2 0,3l2 0c4,0 7,2 8,4 0,1 1,1 1,2 0,0 0,0 0,1l0 0 1 2 -3 0c-1,-1 -3,-1 -6,-1 -4,0 -8,1 -12,2 -4,2 -7,4 -8,7 0,1 -1,2 -1,3l0 18c16,0 31,-7 41,-17 10,-10 16,-23 17,-38l-37 0zm-24 85c-2,-9 -7,-16 -14,-20 -3,-2 -6,-4 -9,-5 -9,-3 -17,-9 -24,-15 -9,-10 -16,-22 -19,-35 3,2 6,3 10,5 7,25 29,45 56,45l0 25zm0 -33l0 -15c0,-1 1,-2 1,-4 1,-4 5,-7 10,-8 4,-2 10,-3 14,-3 1,0 2,0 4,0 -2,-1 -3,-2 -5,-2l-4 0 -2 0 1 -2c0,0 0,-2 0,-3l0 0c-1,0 -2,-1 -5,-1l-14 0 0 -14 -67 0c6,9 18,15 28,17 -4,0 -6,0 -9,-1 7,21 26,36 48,36zm15 -36c0,0 1,1 1,1 0,1 -1,2 -1,2 -1,0 -2,-1 -2,-2 0,0 1,-1 2,-1zm-42 -84c3,2 7,3 10,4 1,0 1,0 2,1 6,1 11,2 17,2l0 0c8,0 16,-2 24,-4 1,-1 3,-2 4,-2 0,0 1,0 1,0 -9,-4 -19,-7 -29,-7l0 0 0 0c-10,0 -20,2 -29,6z"/>
  <path class="fil18" d="M1639 1198c1,-1 1,-1 2,-2 2,-2 6,-3 9,-5l-11 0 0 7zm12 9c0,0 1,1 1,1 0,1 -1,2 -1,2 -1,0 -2,-1 -2,-2 0,0 1,-1 2,-1zm-67 0c7,23 28,39 52,40l0 -4c-22,0 -41,-15 -48,-36 -1,0 -2,0 -4,0z"/>
  <g style="clip-path:url(#id0)">
   <image transform="matrix(13.3959 1.6222 -0.924299 7.63274 1208.05 1937.77)" x="0" y="0" width="18.2766" height="18.2766" xlink:href="cs_Images\cs_ImgID6.png"/>
  </g>
  <g style="clip-path:url(#id1)">
   <image transform="matrix(-13.3179 -2.1716 -1.23734 7.58828 2118.91 1977.16)" x="0" y="0" width="18.2766" height="18.2766" xlink:href="cs_Images\cs_ImgID7.png"/>
  </g>
  <path class="fil13" d="M1866 1969c-25,-6 -51,-9 -76,-15 -56,257 -95,519 -118,782l51 -1c39,-138 87,-279 143,-409 -11,-33 -23,-69 -34,-101 31,-16 58,-40 86,-60 -16,-66 -33,-131 -52,-196z"/>
  <path class="fil19" d="M1571 1762c0,0 0,0 0,0 -20,-1 -40,-2 -59,-7 -23,-5 -41,-14 -55,-27 -21,-19 -30,-47 -34,-66 -5,-25 -5,-49 -4,-74 0,-3 2,-5 5,-5 3,0 6,2 6,6 0,23 -1,47 4,71 3,17 12,42 31,60 12,11 29,19 49,24 19,4 38,6 57,7 4,0 6,2 6,6 0,3 -3,5 -6,5z"/>
  <path class="fil19" d="M1588 1756c0,8 -10,15 -22,15 -11,0 -21,-7 -21,-15 0,-9 10,-15 21,-15 12,0 22,6 22,15z"/>
  <path class="fil1" d="M1241 2079c-64,66 -107,148 -138,235 -31,86 -49,176 -67,265 -5,26 -11,53 -4,79 13,52 71,80 125,87 53,6 108,-3 161,7 39,-223 23,-470 -77,-673z"/>
  <polygon class="fil1" points="1827,1960 1754,1942 1683,2024 1567,2017 1510,1942 1466,1958 1586,2732 1734,2743 "/>
  <path class="fil20" d="M1432 2565c-40,-21 -86,-33 -131,-38 8,-65 9,-130 5,-195 17,52 28,106 28,161 38,14 76,37 98,72z"/>
  <g id="_2597642686128">
   <image x="0" y="-1" width="3821" height="3839" xlink:href="cs_Images\cs_ImgID8.png"/>
  </g>
  <path class="fil20" d="M1744 1903l5 3 36 65 -83 173 -54 -123 -8 -18c0,0 73,-1 104,-100z"/>
  <g id="_2597642685552">
   <image x="0" y="-1" width="3821" height="3839" xlink:href="cs_Images\cs_ImgID9.png"/>
  </g>
  <path class="fil20" d="M1531 1903l-6 3 -36 65 83 173 54 -123 8 -18c0,0 -73,-1 -103,-100z"/>
  <path class="fil21" d="M1616 1992c0,0 26,-11 43,0l9 7 -10 27 -31 2 -19 -28 8 -8z"/>
  <polygon class="fil21" points="1658,2026 1691,2526 1649,2588 1608,2527 1627,2028 1640,2017 "/>
  <g style="clip-path:url(#id2)">
   <image x="1304" y="2158" width="197.09" height="86.4407" xlink:href="cs_Images\cs_ImgID10.png"/>
  </g>
  <path class="fil7" d="M1423 2633c40,-11 79,-23 120,-27 41,-4 83,0 120,17 37,18 68,51 76,91 3,13 -22,17 -34,20 -13,4 -26,3 -39,2l-130 -7c-32,-2 -65,6 -91,-11 -13,-8 -21,-23 -24,-39 -3,-15 1,-30 2,-46z"/>
  <path class="fil22" d="M1153 2566c114,-6 228,-6 341,0 11,53 25,112 20,166 -91,24 -186,25 -278,2 -62,-15 -84,-103 -83,-168z"/>
  <path class="fil16" d="M1901 2149c3,2 7,3 10,4 1,0 1,0 2,0 6,2 11,3 17,3l0 0c8,0 16,-2 24,-5 1,0 3,-1 4,-1 0,0 1,-1 1,-1 -9,-4 -19,-6 -29,-6l0 0 0 0c-10,0 -20,2 -29,6zm-4 32c3,-9 7,-18 13,-25 0,0 0,0 0,0 -4,-2 -8,-3 -12,-5 -6,3 -12,7 -17,12 -3,3 -5,6 -7,9 6,3 13,6 21,8 0,1 1,1 2,1zm-3 31c0,-3 0,-6 0,-9 0,-6 0,-13 2,-19 -1,0 -1,0 -2,-1 -8,-2 -15,-5 -22,-9 -7,11 -11,24 -11,38l0 0 0 0 0 0 33 0zm5 -27c-2,6 -2,12 -2,18 0,3 0,7 0,9l31 0 0 -23c-10,-1 -20,-2 -29,-4zm15 -28c-6,7 -11,16 -14,25 9,2 19,3 28,4l0 -27c-5,0 -10,-1 -14,-2zm46 25c-3,-9 -8,-18 -14,-25 -5,1 -10,2 -14,2l0 27c9,-1 19,-2 28,-4zm3 30c0,-2 0,-6 0,-9 0,-6 -1,-12 -2,-18 -10,2 -20,3 -29,4l0 23 31 0zm1 -28c1,6 2,13 2,19 0,3 0,6 0,9l33 0c0,0 0,0 0,0l0 0 0 0c0,-14 -4,-27 -11,-38 -2,1 -4,2 -5,3 -3,1 -5,2 -8,3 -4,1 -7,3 -11,4zm-14 -28c5,7 10,16 13,25 4,-1 7,-2 11,-4 2,-1 5,-2 7,-3 2,-1 3,-2 5,-3 -2,-2 -5,-5 -7,-8 -5,-4 -11,-9 -17,-12 -1,1 -2,1 -3,1 -1,1 -3,2 -4,2 -2,1 -4,1 -5,2zm2 61c-5,1 -13,3 -18,7 -1,1 -1,2 -2,3 0,0 0,0 0,1l0 0 9 0c5,0 7,1 8,3l0 0c0,1 0,2 0,3l2 0c4,0 7,2 8,4 1,1 1,1 1,1 0,1 0,1 0,2l0 0 1 2 -3 -1c-1,0 -3,0 -6,0 -4,0 -8,0 -12,2 -4,2 -7,4 -8,7 0,1 0,2 0,3l0 18c15,0 30,-7 40,-17 10,-10 16,-23 17,-38l-37 0zm-20 7c0,-1 0,-1 1,-2 2,-2 6,-4 9,-5l-10 0 0 7zm-56 9c7,22 28,39 52,40l0 -19c0,-2 1,-3 1,-4 1,-4 5,-7 10,-9 4,-2 10,-2 14,-2 1,0 2,0 4,0 -1,-1 -3,-2 -5,-2l-4 0 -2 0 1 -2c0,-1 0,-2 0,-3l0 0c-1,-1 -2,-1 -5,-1l-14 0 0 -14 -67 0c6,9 18,14 28,16 -5,1 -8,1 -13,0zm52 69l0 -25c-27,-1 -49,-20 -56,-46 -4,-1 -7,-2 -10,-4 3,13 10,25 19,34 7,7 15,12 24,16 3,1 6,3 9,4 7,5 12,12 14,21zm72 -82l4 1 -3 12 -3 -1c-1,3 -2,6 -3,9l3 2 -6 11 -3 -3c-2,3 -4,5 -6,8l4 3 -9 9 -3 -4c-3,2 -5,4 -8,6l3 4 -12 5 -1 -4c-3,1 -6,2 -9,3l1 5 -12 2 -1 -5c-1,0 -3,0 -4,0l0 27 -4 0c0,-3 -4,-12 -8,-18 -5,-5 -12,-9 -15,-10 -11,-4 -20,-10 -27,-18 -13,-13 -22,-31 -22,-52l0 0 0 0c0,-20 9,-38 22,-52 13,-13 32,-21 52,-21l0 0 0 0c20,0 39,8 52,21 13,14 22,32 22,52l0 0 0 0c0,2 0,4 -1,5l-3 0c0,1 0,2 0,3z"/>
  <path class="fil17" d="M1897 2181c-1,0 -2,0 -2,-1 -8,-2 -15,-5 -21,-8 2,-3 4,-6 7,-9 5,-5 11,-9 17,-12 4,2 8,3 12,5 0,0 0,0 0,0 -6,7 -10,16 -13,25zm-3 31c0,-3 0,-6 0,-9 0,-6 0,-13 2,-19 -1,0 -1,0 -2,-1 -8,-2 -15,-5 -22,-9 -7,11 -11,24 -11,38l0 0 0 0 0 0 33 0zm5 -27c9,2 19,3 29,4l0 23 -31 0c0,-2 0,-6 0,-9 0,-6 0,-12 2,-18zm15 -28c-6,7 -11,16 -14,25 9,2 19,3 28,4l0 -27c-5,0 -10,-1 -14,-2zm46 25c-3,-9 -8,-18 -14,-25 -5,1 -10,2 -14,2l0 27c9,-1 19,-2 28,-4zm3 30c0,-2 0,-6 0,-9 0,-6 -1,-12 -2,-18 -10,2 -20,3 -29,4l0 23 31 0zm1 -28c1,6 2,13 2,19 0,3 0,6 0,9l33 0c0,0 0,0 0,0l0 0 0 0c0,-14 -4,-27 -11,-38 -2,1 -4,2 -5,3 -3,1 -5,2 -8,3 -4,1 -7,3 -11,4zm-14 -28c1,-1 3,-1 5,-2 1,0 3,-1 4,-2 1,0 2,0 3,-1 6,3 12,8 17,12 2,3 5,6 7,8 -2,1 -3,2 -5,3 -2,1 -5,2 -7,3 -4,2 -7,3 -11,4 -3,-9 -8,-18 -13,-25zm2 61c-5,1 -13,3 -18,7 -1,1 -1,2 -2,3 0,0 0,0 0,1l0 0 9 0c5,0 7,1 8,3l0 0c0,1 0,2 0,3l2 0c4,0 7,2 8,4 1,1 1,1 1,1 0,1 0,1 0,2l0 0 1 2 -3 -1c-1,0 -3,0 -6,0 -4,0 -8,0 -12,2 -4,2 -7,4 -8,7 0,1 0,2 0,3l0 18c15,0 30,-7 40,-17 10,-10 16,-23 17,-38l-37 0zm-24 85c-2,-9 -7,-16 -14,-20 -3,-2 -6,-4 -9,-5 -9,-4 -17,-9 -24,-16 -9,-9 -16,-21 -19,-34 3,2 6,3 10,4 7,26 29,45 56,46l0 25zm0 -33l0 -15c0,-2 1,-3 1,-4 1,-4 5,-7 10,-9 4,-2 10,-2 14,-2 1,0 3,0 4,0 -1,-1 -3,-2 -5,-2l-4 0 -2 0 1 -2c0,-1 0,-2 0,-3l0 0c-1,-1 -2,-1 -5,-1l-14 0 0 -14 -67 0c6,9 18,14 28,16 -4,1 -6,1 -9,0 7,21 26,35 48,36zm15 -36c0,0 1,0 1,1 0,1 -1,2 -1,2 -1,0 -2,-1 -2,-2 0,-1 1,-1 2,-1zm-42 -84c3,2 7,3 10,4 1,0 1,0 2,0 6,2 11,3 17,3l0 0c8,0 16,-2 24,-5 1,0 3,-1 4,-1 0,0 1,-1 1,-1 -9,-4 -19,-6 -29,-6l0 0 0 0c-10,0 -20,2 -29,6z"/>
  <path class="fil18" d="M1932 2223c0,0 0,0 1,-1 2,-2 6,-4 9,-5l-10 0 0 6zm11 10c0,0 1,0 1,1 0,1 -1,2 -1,2 -1,0 -2,-1 -2,-2 0,-1 1,-1 2,-1zm-67 0c7,22 28,39 52,40l0 -4c-22,-1 -41,-15 -48,-36 -1,0 -2,0 -4,0z"/>
  <path class="fil23" d="M2557 2704l-1297 0 0 12c0,14 12,25 26,25l1246 0c14,0 25,-11 25,-25l0 -12z"/>
  <path class="fil4" d="M2557 2704l-1297 0 0 12c0,14 12,25 26,25l1246 0c14,0 25,-11 25,-25l0 -12z"/>
  <path class="fil4" d="M1712 2715l0 -11 -452 0 0 11c0,15 12,26 26,26l400 0c14,0 26,-11 26,-26z"/>
  <path class="fil0" d="M2557 2704l-845 0 189 -517c7,-20 28,-35 47,-35l775 0c20,0 30,15 23,35l-189 517z"/>
  <path class="fil24" d="M2290 2428c-11,30 -45,54 -75,54 -29,0 -45,-24 -34,-54 11,-30 44,-54 74,-54 30,0 45,24 35,54z"/>
  <g id="_2597642689648">
   <image x="0" y="-1" width="3821" height="3839" xlink:href="cs_Images\cs_ImgID11.png"/>
  </g>
  <g id="_2597642690960">
   <image x="0" y="-1" width="3821" height="3839" xlink:href="cs_Images\cs_ImgID12.png"/>
  </g>
  <g id="_2597642690672">
   <image x="0" y="-1" width="3821" height="3839" xlink:href="cs_Images\cs_ImgID13.png"/>
  </g>
  <path class="fil25" d="M1144 2520c-34,0 -62,28 -62,62 0,33 28,61 62,61 33,0 61,-28 61,-61 0,-34 -28,-62 -61,-62zm0 151c-50,0 -89,-40 -89,-89 0,-50 39,-90 89,-90 49,0 89,40 89,90 0,49 -40,89 -89,89z"/>
  <path class="fil0" d="M895 2665c0,10 1,21 4,31 8,27 32,45 60,45l110 0c27,0 52,-18 60,-45 2,-10 4,-21 4,-31l0 -182 -238 0 0 182z"/>
  <g id="_2597642692720">
   <image x="0" y="-1" width="3821" height="3839" xlink:href="cs_Images\cs_ImgID14.png"/>
  </g>
  <path class="fil3" d="M2082 1268c-56,0 -101,-45 -101,-101 0,-56 45,-101 101,-101 56,0 101,45 101,101 0,56 -45,101 -101,101zm143 -101c0,-6 0,-11 -1,-16l22 -10c-1,-8 -3,-15 -5,-23l-24 1c-4,-10 -8,-19 -14,-28l16 -19c-4,-6 -9,-12 -15,-18l-21 12c-8,-8 -16,-14 -25,-20l7 -24c-7,-4 -14,-7 -22,-10l-14 20c-10,-3 -20,-6 -31,-7l-4 -24c-4,0 -8,-1 -12,-1 -4,0 -8,1 -12,1l-4 24c-11,1 -21,4 -31,7l-14 -20c-8,3 -15,6 -21,10l6 24c-9,6 -17,12 -25,20l-21 -12c-6,6 -10,12 -15,18l16 19c-5,9 -10,18 -14,28l-24 -1c-2,8 -4,15 -5,23l22 10c0,5 -1,10 -1,16 0,5 1,10 1,16l-22 9c1,8 3,16 5,23l24 -1c4,10 9,20 14,28l-16 19c5,6 9,13 15,18l21 -11c8,7 16,14 25,19l-6 24c6,4 13,7 21,10l14 -20c10,4 20,6 31,8l4 24c4,0 8,0 12,0 4,0 8,0 12,0l4 -24c11,-2 21,-4 31,-8l14 20c8,-3 15,-6 22,-10l-7 -24c9,-5 17,-12 25,-19l21 11c6,-5 11,-12 15,-18l-16 -19c6,-8 10,-18 14,-28l24 1c2,-7 4,-15 5,-23l-22 -9c1,-6 1,-11 1,-16z"/>
  <path class="fil3" d="M917 1873c-47,0 -85,-38 -85,-85 0,-46 38,-84 85,-84 46,0 84,38 84,84 0,47 -38,85 -84,85zm119 -85c0,-4 0,-9 0,-13l18 -8c-1,-7 -2,-13 -4,-19l-20 1c-3,-9 -7,-17 -12,-24l14 -16c-4,-5 -8,-10 -13,-15l-18 10c-6,-7 -13,-12 -21,-17l6 -20c-6,-3 -12,-6 -18,-8l-12 16c-8,-3 -17,-5 -26,-6l-3 -20c-4,0 -7,0 -10,0 -4,0 -7,0 -10,0l-4 20c-9,1 -17,3 -26,6l-12 -16c-6,2 -12,5 -18,8l6 20c-8,5 -15,10 -21,17l-18 -10c-4,5 -9,10 -12,15l13 16c-4,7 -8,15 -11,24l-21 -1c-2,6 -3,12 -4,19l19 8c-1,4 -1,9 -1,13 0,5 0,9 1,14l-19 8c1,6 2,13 4,19l21 -1c3,8 7,16 11,24l-13 15c3,6 8,11 12,16l18 -10c6,6 13,12 21,17l-6 19c6,4 12,7 18,9l12 -17c9,3 17,5 26,6l4 20c3,1 6,1 10,1 3,0 6,0 10,-1l3 -20c9,-1 18,-3 26,-6l12 17c6,-2 12,-5 18,-9l-6 -19c8,-5 15,-11 21,-17l18 10c5,-5 9,-10 13,-16l-14 -15c5,-8 9,-16 12,-24l20 1c2,-6 3,-13 4,-19l-18 -8c0,-5 0,-9 0,-14z"/>
  <path class="fil3" d="M2658 2044c-34,0 -62,-28 -62,-62 0,-34 28,-62 62,-62 34,0 62,28 62,62 0,34 -28,62 -62,62zm88 -62c0,-3 -1,-6 -1,-10l14 -5c-1,-5 -2,-10 -3,-14l-15 0c-3,-6 -5,-12 -9,-17l10 -12c-3,-4 -6,-7 -9,-11l-13 7c-5,-4 -10,-8 -15,-12l4 -14c-4,-3 -9,-5 -13,-7l-9 13c-6,-3 -12,-4 -19,-5l-3 -15c-2,0 -5,0 -7,0 -2,0 -5,0 -7,0l-3 15c-6,1 -13,2 -19,5l-9 -13c-4,2 -8,4 -13,7l4 14c-5,4 -10,8 -15,12l-13 -7c-3,4 -6,7 -9,11l10 12c-4,5 -6,11 -9,17l-15 0c-1,4 -2,9 -3,14l14 5c0,4 -1,7 -1,10 0,3 1,7 1,10l-14 6c1,5 2,9 3,14l15 -1c3,6 5,12 9,18l-10 11c3,4 6,8 9,11l13 -7c5,5 10,9 15,12l-4 15c5,2 9,4 13,6l9 -12c6,2 13,3 19,4l3 15c2,0 5,0 7,0 2,0 5,0 7,0l3 -15c7,-1 13,-2 19,-4l9 12c4,-2 9,-4 13,-6l-4 -15c5,-3 10,-7 15,-12l13 7c3,-3 6,-7 9,-11l-10 -11c4,-6 6,-12 9,-18l15 1c1,-5 2,-9 3,-14l-14 -6c0,-3 1,-7 1,-10z"/>
  <path class="fil26" d="M2356 1711l-217 0c-35,0 -64,28 -64,64l0 103c0,36 29,64 64,64l7 0 -14 21c-5,7 2,16 10,12l69 -29c6,-2 13,-4 20,-4l125 0c36,0 64,-28 64,-64l0 -103c0,-36 -28,-64 -64,-64z"/>
  <path class="fil27" d="M2376 1788l-257 0c-6,0 -11,-5 -11,-11 0,-6 5,-11 11,-11l257 0c6,0 11,5 11,11 0,6 -5,11 -11,11z"/>
  <path class="fil27" d="M2376 1838l-257 0c-6,0 -11,-5 -11,-11 0,-7 5,-12 11,-12l257 0c6,0 11,5 11,12 0,6 -5,11 -11,11z"/>
  <path class="fil27" d="M2264 1887l-145 0c-6,0 -11,-5 -11,-11 0,-6 5,-11 11,-11l145 0c6,0 11,5 11,11 0,6 -5,11 -11,11z"/>
  <path class="fil26" d="M2704 1551l-215 0c-68,0 -123,-55 -123,-123l0 -215c0,-68 55,-123 123,-123l215 0c67,0 122,55 122,123l0 215c0,68 -55,123 -122,123z"/>
  <path class="fil0" d="M2474 1438c-59,-67 -53,-170 14,-230 68,-59 171,-53 230,15 5,5 4,13 -1,18 -5,5 -14,4 -18,-1 -50,-57 -137,-62 -193,-12 -57,50 -62,136 -13,193 50,56 137,62 194,12 37,-33 53,-83 43,-132 -2,-7 3,-14 10,-15 7,-2 14,3 15,10 13,57 -7,117 -51,156 -68,60 -171,53 -230,-14z"/>
  <path class="fil0" d="M2629 1245c-2,-2 -3,-5 -4,-7 0,-8 5,-14 12,-14l57 -5 -4 -57c-1,-7 5,-13 12,-14 7,0 13,5 14,12l5 70c1,4 -1,7 -3,10 -2,2 -5,4 -9,4l-70 5c-4,1 -8,-1 -10,-4z"/>
  <path class="fil0" d="M2493 1353c21,-15 31,-27 31,-36 0,-5 -2,-8 -7,-8 -3,0 -5,1 -6,3 -1,2 -2,5 -2,9l-16 0c0,-9 3,-15 8,-19 4,-5 10,-7 17,-7 8,0 14,2 17,6 4,4 6,9 6,15 0,6 -3,13 -8,19 -5,7 -11,12 -18,17l27 0 0 13 -49 0 0 -12zm56 0l0 -14 32 -43 18 0 0 43 8 0 0 14 -8 0 0 13 -17 0 0 -13 -33 0zm34 -38l-17 24 17 0 0 -24zm68 -42l-26 111 -16 0 26 -111 16 0zm46 35l-25 58 -17 0 25 -56 -30 0 0 -14 47 0 0 12z"/>
  <path class="fil28" d="M666 1448c0,11 -9,21 -21,21 -12,0 -21,-10 -21,-21 0,-12 9,-21 21,-21 12,0 21,9 21,21z"/>
  <path class="fil28" d="M504 1969c0,7 -6,13 -13,13 -8,0 -14,-6 -14,-13 0,-8 6,-14 14,-14 7,0 13,6 13,14z"/>
  <path class="fil28" d="M624 2575c0,5 -4,10 -10,10 -6,0 -10,-5 -10,-10 0,-6 4,-10 10,-10 6,0 10,4 10,10z"/>
  <path class="fil28" d="M673 1288c0,4 -4,8 -8,8 -5,0 -9,-4 -9,-8 0,-5 4,-9 9,-9 4,0 8,4 8,9z"/>
  <path class="fil28" d="M1205 817c0,8 -7,15 -14,15 -8,0 -15,-7 -15,-15 0,-8 7,-14 15,-14 7,0 14,6 14,14z"/>
  <path class="fil28" d="M1712 819c0,10 -7,17 -17,17 -9,0 -16,-7 -16,-17 0,-9 7,-16 16,-16 10,0 17,7 17,16z"/>
  <path class="fil28" d="M1818 981c0,11 -9,19 -19,19 -11,0 -19,-8 -19,-19 0,-11 8,-19 19,-19 10,0 19,8 19,19z"/>
  <path class="fil28" d="M2346 941c0,11 -10,21 -21,21 -12,0 -21,-10 -21,-21 0,-12 9,-21 21,-21 11,0 21,9 21,21z"/>
  <path class="fil28" d="M2092 855c0,5 -3,8 -8,8 -5,0 -9,-3 -9,-8 0,-5 4,-9 9,-9 5,0 8,4 8,9z"/>
  <path class="fil28" d="M2557 995c0,7 -6,13 -13,13 -8,0 -14,-6 -14,-13 0,-8 6,-14 14,-14 7,0 13,6 13,14z"/>
  <path class="fil28" d="M2920 1249c0,8 -7,15 -15,15 -8,0 -15,-7 -15,-15 0,-8 7,-15 15,-15 8,0 15,7 15,15z"/>
  <path class="fil28" d="M2907 1615c0,13 -10,23 -23,23 -13,0 -23,-10 -23,-23 0,-13 10,-23 23,-23 13,0 23,10 23,23z"/>
  <path class="fil28" d="M3068 1800c0,6 -5,12 -11,12 -7,0 -12,-6 -12,-12 0,-6 5,-12 12,-12 6,0 11,6 11,12z"/>
  <path class="fil28" d="M2861 1817c0,10 -8,18 -17,18 -10,0 -18,-8 -18,-18 0,-9 8,-17 18,-17 9,0 17,8 17,17z"/>
  <path class="fil28" d="M2976 2519c0,9 -7,16 -16,16 -8,0 -15,-7 -15,-16 0,-9 7,-16 15,-16 9,0 16,7 16,16z"/>
  <path class="fil28" d="M2855 2634c0,12 -10,22 -22,22 -12,0 -22,-10 -22,-22 0,-12 10,-22 22,-22 12,0 22,10 22,22z"/>
  <g id="_2597641929904">
   <image x="0" y="-1" width="3821" height="3839" xlink:href="cs_Images\cs_ImgID15.png"/>
  </g>
  <g id="_2597641930608">
   <image x="0" y="-1" width="3821" height="3839" xlink:href="cs_Images\cs_ImgID16.png"/>
  </g>
  <g id="_2597641929296">
   <image x="0" y="-1" width="3821" height="3839" xlink:href="cs_Images\cs_ImgID17.png"/>
  </g>
  <g id="_2597641930320">
   <image x="0" y="-1" width="3821" height="3839" xlink:href="cs_Images\cs_ImgID18.png"/>
  </g>
  <g id="_2597643331648">
   <image x="0" y="-1" width="3821" height="3839" xlink:href="cs_Images\cs_ImgID19.png"/>
  </g>
  <g id="_2597643331008">
   <image x="0" y="-1" width="3821" height="3839" xlink:href="cs_Images\cs_ImgID20.png"/>
  </g>
  <g id="_2597643331488">
   <image x="0" y="-1" width="3821" height="3839" xlink:href="cs_Images\cs_ImgID21.png"/>
  </g>
  <path class="fil26" d="M1130 1443l-338 0c-57,0 -103,-47 -103,-104l0 -180c0,-57 46,-103 103,-103l338 0c57,0 103,46 103,103l0 180c0,57 -46,104 -103,104z"/>
  <path class="fil0" d="M847 1180c0,25 -20,45 -45,45 -25,0 -45,-20 -45,-45 0,-25 20,-45 45,-45 25,0 45,20 45,45z"/>
  <path class="fil0" d="M1125 1163l-230 0c-7,0 -13,-7 -13,-14 0,-8 6,-14 13,-14l230 0c7,0 14,6 14,14 0,7 -7,14 -14,14z"/>
  <path class="fil0" d="M1125 1226l-230 0c-7,0 -13,-6 -13,-14 0,-8 6,-14 13,-14l230 0c7,0 14,6 14,14 0,8 -7,14 -14,14z"/>
  <path class="fil0" d="M847 1318c0,25 -20,45 -45,45 -25,0 -45,-20 -45,-45 0,-25 20,-46 45,-46 25,0 45,21 45,46z"/>
  <path class="fil0" d="M1125 1300l-230 0c-7,0 -13,-6 -13,-14 0,-7 6,-14 13,-14l230 0c7,0 14,7 14,14 0,8 -7,14 -14,14z"/>
  <path class="fil0" d="M1125 1364l-230 0c-7,0 -13,-7 -13,-14 0,-8 6,-14 13,-14l230 0c7,0 14,6 14,14 0,7 -7,14 -14,14z"/>
  <path class="fil26" d="M875 2365l-168 0c-53,0 -96,-43 -96,-96l0 -169c0,-53 43,-96 96,-96l168 0c54,0 97,43 97,96l0 169c0,53 -43,96 -97,96z"/>
  <path class="fil0" d="M798 2088c19,0 33,5 44,14 12,10 17,23 17,41 0,17 -5,30 -16,40 -11,9 -25,14 -43,14l0 24 -43 0 0 -53 18 0c12,0 22,-1 29,-5 7,-4 11,-10 11,-19 0,-6 -2,-11 -5,-14 -4,-4 -8,-5 -14,-5 -6,0 -11,2 -14,5 -4,4 -6,9 -6,15l-42 0c-1,-11 2,-20 6,-29 5,-9 13,-16 22,-21 10,-5 22,-7 36,-7zm4 154l0 45 -47 0 0 -45 47 0z"/>
  <path class="fil26" d="M1777 1088l-215 0c-68,0 -123,-55 -123,-123l0 -90c0,-68 55,-123 123,-123l215 0c68,0 123,55 123,123l0 90c0,68 -55,123 -123,123z"/>
  <path class="fil0" d="M1796 920c0,19 -15,34 -34,34 -18,0 -33,-15 -33,-34 0,-19 15,-34 33,-34 19,0 34,15 34,34z"/>
  <path class="fil0" d="M1703 920c0,19 -15,34 -34,34 -18,0 -33,-15 -33,-34 0,-19 15,-34 33,-34 19,0 34,15 34,34z"/>
  <path class="fil0" d="M1610 920c0,19 -15,34 -34,34 -18,0 -34,-15 -34,-34 0,-19 16,-34 34,-34 19,0 34,15 34,34z"/>
 </g>
</svg>
