<?xml version="1.0" encoding="UTF-8"?>
<!DOCTYPE svg PUBLIC "-//W3C//DTD SVG 1.0//EN" "http://www.w3.org/TR/2001/REC-SVG-20010904/DTD/svg10.dtd">
<!-- Creator: CorelDRAW X7 -->
<svg xmlns="http://www.w3.org/2000/svg" xml:space="preserve" width="38mm" height="38mm" version="1.0" style="shape-rendering:geometricPrecision; text-rendering:geometricPrecision; image-rendering:optimizeQuality; fill-rule:evenodd; clip-rule:evenodd"
viewBox="0 0 1220 1220"
 xmlns:xlink="http://www.w3.org/1999/xlink">
 <defs>
  <style type="text/css">
   <![CDATA[
    .str0 {stroke:#09186C;stroke-width:33.9868}
    .fil0 {fill:none}
    .fil3 {fill:none;fill-rule:nonzero}
    .fil1 {fill:#58CE7D;fill-rule:nonzero}
    .fil2 {fill:white;fill-rule:nonzero}
   ]]>
  </style>
 </defs>
 <g id="Layer_x0020_1">
  <metadata id="CorelCorpID_0Corel-Layer"/>
  <g id="_2597492216928">
   <rect class="fil0" width="1220" height="1220"/>
   <path class="fil1" d="M1152 451c0,221 -179,400 -399,400 -221,0 -400,-179 -400,-400 0,-221 179,-400 400,-400 220,0 399,179 399,400z"/>
   <path class="fil2" d="M923 588c16,0 28,-12 28,-28l0 -95c0,-16 -12,-28 -28,-28l-16 0 0 -82 0 0 0 -138c0,-26 -21,-47 -47,-47l-666 0c-26,0 -47,21 -47,47l0 138 0 0 0 82 -16 0c-16,0 -29,12 -29,28l0 95c0,16 13,28 29,28l16 0 0 116c-23,14 -38,38 -38,67l0 331c0,20 16,36 36,36l90 0c20,0 36,-16 36,-36l0 -69 512 0 0 69c0,20 16,36 36,36l89 0c21,0 37,-16 37,-36l0 -331c0,-29 -15,-53 -38,-67l0 -116 16 0z"/>
   <polygon class="fil3 str0" points="945,1033 109,1033 109,930 945,930 "/>
   <path class="fil3 str0" d="M824 674l-34 -226c-5,-29 -27,-51 -55,-56l0 0c-138,-24 -279,-24 -416,0 -29,5 -51,27 -55,56l-35 226c-1,10 -10,18 -20,18l-21 0c-44,0 -79,35 -79,79l0 159 836 0 0 -159c0,-44 -36,-79 -79,-79l-21 0c-11,0 -19,-8 -21,-18z"/>
   <path class="fil3 str0" d="M235 1139l-90 0c-20,0 -36,-17 -36,-37l0 -69 162 0 0 69c0,20 -16,37 -36,37z"/>
   <path class="fil3 str0" d="M908 1139l-89 0c-20,0 -36,-17 -36,-37l0 -69 162 0 0 69c0,20 -17,37 -37,37z"/>
   <path class="fil3 str0" d="M244 580c72,17 165,32 275,33 117,1 216,-15 291,-33"/>
   <path class="fil3 str0" d="M643 851l-232 0c-13,0 -23,-10 -23,-23l0 -113c0,-13 10,-23 23,-23l232 0c13,0 23,10 23,23l0 113c0,13 -10,23 -23,23z"/>
   <path class="fil3 str0" d="M859 851l-92 0c-8,0 -14,-6 -14,-14l0 -56c0,-8 6,-15 14,-15l92 0c8,0 15,7 15,15l0 56c0,8 -7,14 -15,14z"/>
   <path class="fil3 str0" d="M287 851l-93 0c-8,0 -14,-6 -14,-14l0 -56c0,-8 6,-15 14,-15l93 0c8,0 14,7 14,15l0 56c0,8 -6,14 -14,14z"/>
   <line class="fil3 str0" x1="147" y1="704" x2="147" y2= "588" />
   <line class="fil3 str0" x1="907" y1="704" x2="907" y2= "588" />
   <path class="fil3 str0" d="M147 437l0 -220c0,-26 21,-47 47,-47l666 0c26,0 47,21 47,47l0 220"/>
   <path class="fil3 str0" d="M951 465l0 95c0,16 -12,28 -28,28l-36 0c-16,0 -29,-12 -29,-28l0 -95c0,-16 13,-28 29,-28l36 0c16,0 28,12 28,28z"/>
   <path class="fil3 str0" d="M195 465l0 95c0,16 -12,28 -28,28l-36 0c-16,0 -29,-12 -29,-28l0 -95c0,-16 13,-28 29,-28l36 0c16,0 28,12 28,28z"/>
  </g>
 </g>
</svg>
